<svg width="23" height="25" viewBox="0 0 23 25" fill="none" xmlns="http://www.w3.org/2000/svg">
  <path d="M17.7768 15.7837V18.9384C17.7768 19.4983 17.3138 19.9613 16.7539 19.9613H4.28539V14.7177H16.7539C17.3138 14.7177 17.7768 15.2022 17.7768 15.7837ZM19.5427 12.4566C20.1779 11.5629 20.5225 10.4754 20.5225 9.36643V5.79173C20.5225 2.83076 18.1106 0.429688 15.1496 0.429688H0.0107673V4.76885H15.1496C15.7203 4.76885 16.1725 5.23184 16.1725 5.79173V9.36643C16.1725 9.94786 15.6987 10.4324 15.1496 10.4324H4.34999V7.89133H0V24.4297H16.8185C19.7257 24.4297 22.1807 21.9102 22.1807 18.9277V16.5804C22.1807 14.6531 20.9963 13.1995 19.5319 12.4458L19.5427 12.4566Z" fill="#14247B"/>
</svg>
