<svg viewBox="0 0 1305 140" fill="none" xmlns="http://www.w3.org/2000/svg">
  <path d="M999.548 138.631H922.717C909.227 138.631 898.202 126.51 898.202 111.651V27.1499C898.202 12.2904 909.227 0.169922 922.717 0.169922H999.548C1013.11 0.169922 1024.06 12.2904 1024.06 27.1499V111.651C1024.06 126.51 1013.04 138.631 999.548 138.631ZM922.717 23.6576C921.005 23.6576 919.499 25.2326 919.499 27.1499V111.651C919.499 113.568 920.937 115.143 922.717 115.143H999.548C1001.26 115.143 1002.7 113.5 1002.7 111.651V27.1499C1002.7 25.2326 1001.26 23.6576 999.548 23.6576H922.717Z" fill="#E31E24"/>
  <path fill-rule="evenodd" clip-rule="evenodd" d="M1067.43 138.973H1041.54V0.169922H1073.25L1143.37 99.5988V0.169922H1167.88V138.631H1137.21L1067.43 38.6541V138.973Z" fill="#E31E24"/>
  <path d="M565.827 114.679H496.696C493.437 114.679 490.742 111.984 490.742 108.725V31.4457C490.742 28.1865 493.437 25.4915 496.696 25.4915H590.521V0.233154H496.696C479.46 0.233154 465.483 14.2098 465.483 31.4457V108.725C465.483 125.961 479.523 140 496.696 140H591.148V58.6469H565.89V114.742L565.827 114.679Z" fill="#FFFFFF"/>
  <path d="M242.485 0.233154H151.354V25.4915H242.485C245.744 25.4915 248.439 28.1865 248.439 31.4457V52.6927C248.439 55.9519 245.744 58.6469 242.485 58.6469H176.675V43.7301H151.354V140H176.675V84.0933H250.633C253.955 84.0933 256.587 86.7883 256.587 90.0475V140H281.845V91.6143C281.845 78.8912 274.763 74.2532 267.493 71.3701C271.504 65.98 273.697 59.399 273.697 52.6927V31.4457C273.697 14.2098 259.658 0.233154 242.422 0.233154H242.485Z" fill="#FFFFFF"/>
  <path d="M840.29 0.233154H749.159V25.4915H840.29C843.549 25.4915 846.244 28.1865 846.244 31.4457V52.6927C846.244 55.9519 843.549 58.6469 840.29 58.6469H774.48V43.7301H749.159V140H774.48V84.0933H848.438C851.759 84.0933 854.392 86.7883 854.392 90.0475V140H879.713V91.6143C879.713 78.8912 872.568 74.2532 865.36 71.3701C869.371 65.98 871.565 59.399 871.565 52.6927V31.4457C871.565 14.2098 857.526 0.233154 840.29 0.233154Z" fill="#FFFFFF"/>
  <path d="M638.031 83.9052H707.914V58.6469H638.031V43.6674H612.71V139.937H727.595V113.927H638.031V83.9052Z" fill="#FFFFFF"/>
  <path d="M612.71 25.4915H727.595V0.233154H612.71V25.4915Z" fill="#FFFFFF"/>
  <path d="M1214.92 83.9052H1284.81V58.6469H1214.92V43.6674H1189.6V139.937H1304.49V113.927H1214.92V83.9052Z" fill="#E31E24"/>
  <path d="M1189.6 25.4915H1304.49V0.233154H1189.6V25.4915Z" fill="#E31E24"/>
  <path d="M104.035 89.5455V107.909C104.035 111.169 101.34 113.864 98.081 113.864H25.5026V83.3406H98.081C101.34 83.3406 104.035 86.161 104.035 89.5455ZM114.314 70.1787C118.012 64.9766 120.018 58.6464 120.018 52.1908V31.3824C120.018 14.1466 105.978 0.169922 88.7424 0.169922H0.620293V25.4282H88.7424C92.0642 25.4282 94.6966 28.1233 94.6966 31.3824V52.1908C94.6966 55.5753 91.9388 58.3957 88.7424 58.3957H25.8786V43.6042H0.557617V139.874H98.4571C115.38 139.874 129.67 125.208 129.67 107.847V94.1835C129.67 82.9645 122.775 74.5033 114.251 70.116L114.314 70.1787Z" fill="#FFFFFF"/>
  <path d="M389.899 0.233154H362.885L300.335 139.937H327.223L376.423 30.1295L425.31 139.123L425.686 139.937H452.637L390.275 1.04794L389.899 0.233154Z" fill="#FFFFFF"/>
  <path d="M376.492 82.4009L350.481 139.937C350.481 139.937 369.723 131.915 376.492 131.915C383.324 131.915 402.502 139.937 402.502 139.937L376.492 82.4009Z" fill="url(#paint0_linear_1127_31537)"/>
  <defs>
    <linearGradient id="paint0_linear_1127_31537" x1="376.367" y1="119.912" x2="376.555" y2="102.476" gradientUnits="userSpaceOnUse">
      <stop stop-color="#1CBBEE"/>
      <stop offset="1" stop-color="#A2D9F7"/>
    </linearGradient>
  </defs>
</svg>
